<svg width="210" height="210" viewBox="0 0 210 210" fill="none" xmlns="http://www.w3.org/2000/svg">
<path d="M105.074 34C105.074 34 41.8554 34.0001 25.9883 38.123C17.4925 40.4968 10.4969 47.4925 8.12304 56.1133C4.00009 71.9804 4 104.84 4 104.84C4 104.84 4.00009 137.824 8.12304 153.441C10.4969 162.062 17.3675 168.933 25.9883 171.307C41.9803 175.555 105.074 175.555 105.074 175.555C105.074 175.555 168.418 175.555 184.285 171.432C192.906 169.058 199.777 162.312 202.025 153.566C206.273 137.824 206.273 104.965 206.273 104.965C206.273 104.965 206.398 71.9804 202.025 56.1133C199.777 47.4925 192.906 40.6219 184.285 38.373C168.418 34.0002 105.074 34 105.074 34ZM84.959 74.4805L137.559 104.84L84.959 135.074V74.4805Z" fill="white"/>
</svg>
